<svg xmlns="http://www.w3.org/2000/svg" width="360" height="360" viewBox="0 0 360 360">
    <g fill="none" fill-rule="evenodd" transform="translate(30 50)">
        <mask id="b" fill="#fff">
            <path d="M150 0C67.157 0 0 67.157 0 150s67.157 150 150 150 150-67.157 150-150S232.843 0 150 0"/>
        </mask>
        <path fill="#C00" d="M150 0C67.157 0 0 67.157 0 150s67.157 150 150 150 150-67.157 150-150S232.843 0 150 0"/>
        <g mask="url(#b)">
            <path fill="#A56042" fill-rule="nonzero" d="M163.993 55l25.326 66.787L202.972 118 269 357.788 88.027 408 22 168.212l63.954-17.745L80 66.797 105.513 65l5.585 78.49 53.439-14.827L140 63.957 163.993 55z"/>
            <path fill="#DCA176" fill-rule="nonzero" d="M173.532 46l36.399 70.68L262.897 102 329 341.932 123.103 399 57 159.069l47.886-13.274L93 76.292 118 72l11.455 66.985 55.534-15.392L151 57.594 173.532 46z"/>
            <path fill="#C00" d="M202.7 217.324c-6.446-7.565-17.81-8.471-25.373-2.025-7.568 6.449-8.474 17.81-2.028 25.375 6.45 7.567 17.808 8.475 25.376 2.025 7.564-6.445 8.474-17.808 2.026-25.375m11.178-10.377c-12.178-14.29-33.639-16.003-47.929-3.827-14.294 12.18-16.006 33.64-3.83 47.93 12.18 14.293 33.638 16.008 47.934 3.827 14.289-12.176 16.003-33.637 3.825-47.93m8.024 61.753c-21.65 18.447-54.154 15.847-72.6-5.8-18.448-21.65-15.854-54.15 5.796-72.598 21.647-18.446 54.153-15.853 72.599 5.795 18.447 21.649 15.852 54.157-5.795 72.603"/>
            <g transform="translate(-165 -228)">
                <mask id="d" fill="#fff">
                    <path d="M81.388 0s92.424 34.946 149.376 84.827c31.128 27.265 122.202 128.674 119.162 204.577-1.49 37.153-36.809 48.838-58.975 46.253-18.58-2.167-42.634-12.755-64.135-70.332-18.428-49.348-45.284-94.502-81.383-129.18C109.333 101.469 0 70.024 0 70.024l3.816-58.542L81.388 0z"/>
                </mask>
                <path fill="#FFF" d="M81.388 0s92.424 34.946 149.376 84.827c31.128 27.265 122.202 128.674 119.162 204.577-1.49 37.153-36.809 48.838-58.975 46.253-18.58-2.167-42.634-12.755-64.135-70.332-18.428-49.348-45.284-94.502-81.383-129.18C109.333 101.469 0 70.024 0 70.024l3.816-58.542L81.388 0z"/>
                <path fill="#BBB" d="M290.152 304.667c2.891-28.33 11.46 3.542 3.637 51.333A57.233 57.233 0 0 1 282 353.502c2.475-11.11 6.204-29.734 8.152-48.835zm27.256.256c-.35-26.53 10.01-1.599 9.579 41.098A47.931 47.931 0 0 1 315 354c1.155-11.33 2.658-30.077 2.408-49.077z" mask="url(#d)"/>
            </g>
        </g>
    </g>
</svg>
