<svg xmlns="http://www.w3.org/2000/svg" width="200" height="200" viewBox="0 0 200 200">
  <g fill="none" fill-rule="evenodd">
    <mask id="a" fill="#fff">
      <path d="M200 100c0 55.23-44.77 100-100 100S0 155.23 0 100 44.77 0 100 0s100 44.77 100 100"/>
    </mask>
    <path fill="#560000" d="M200 100c0 55.23-44.77 100-100 100S0 155.23 0 100 44.77 0 100 0s100 44.77 100 100"/>
    <g mask="url(#a)">
      <path fill="#C00" d="M174.26 122.2a6.21 6.21 0 000-8.8L86.6 25.74a6.21 6.21 0 00-8.8 0L25.75 77.81a6.21 6.21 0 000 8.79l87.66 87.66a6.21 6.21 0 008.8 0l52.06-52.07z"/>
      <path fill="#FFF" d="M105.45 137.08a3.56 3.56 0 011.07 3.26l.03.03 3.69-3.69 2 2.01-10.1 10.12-1.92-1.91.94-.94-.03-.03c-1.2.31-2.35-.08-3.36-1.09-2.18-2.18-1.44-5.13.64-7.2 2.02-2.03 4.93-2.67 7.04-.56zm-5.09 2.62c-1.16 1.16-1.81 2.89-.58 4.12 1.15 1.15 2.62.84 4.1-.64 1.33-1.33 1.8-2.83.58-4.06-1.15-1.15-2.68-.84-4.1.58zm12.99.1l.2.2-.25.54.55-.24.2.2-.6.6-.15-.14.43-.43-.59.27-.1-.1.28-.58-.43.42-.14-.14.6-.6zm-.57-.57l.5.49-.12.12-.17-.18-.5.5-.14-.16.49-.48-.18-.18.12-.11zm-15.56-9.99l1.9 1.92-1.35 1.36.03.03a3.64 3.64 0 013.9.77c.2.2.29.39.36.51l-1.87 1.87a4.9 4.9 0 00-.65-.79c-1.46-1.46-3-.98-4.34.37l-3.3 3.3-2-2.01 7.32-7.33zm-4.14-4.53c2.14 2.14 2.48 3.92 1.12 5.28l-3.53 3.53c-.48.48-.5.67-.07 1.1l.06.05-1.3 1.3a2.5 2.5 0 01-1.01-.66c-.94-.94-1.13-1.7-.63-2.53-1.06.1-2.33-.32-3.55-1.54-1.5-1.5-1.71-3.27-.3-4.69.71-.7 1.43-.98 2.2-.92.86.07 1.75.54 3.1 1.63 1.44 1.16 2.12 1.62 2.78.96.83-.83.36-1.58-.32-2.26-.83-.84-1.61-.94-2.45-.24l-2-2.02c1.68-1.51 3.84-1.04 5.9 1.01zm-7.11 3.77c-.58.58-.58 1.29.3 2.17 1.07 1.07 2.2 1.04 3.28-.03l.78-.78c-.35-.02-.8-.27-1.57-.87-1.16-.9-2-1.29-2.8-.5zm1.5-15.04c2.27 2.27 2.75 5.47.73 8l-2.16-2.15c.84-1.15.67-2.87-.43-3.98-1.82-1.81-4.18-1.32-6.22.72-1.9 1.9-2.5 4.28-.64 6.14 1.28 1.27 2.93 1.29 4.56.02l2.15 2.16c-2.77 2.32-6.1 2.17-8.58-.31-3.09-3.1-2.68-7.27.28-10.23 3-2.99 7.19-3.5 10.32-.37zm-12.53-6.87a3.56 3.56 0 011.07 3.26l.03.03 3.69-3.69 2 2.01-10.1 10.12-1.92-1.91.94-.94-.03-.03c-1.2.31-2.35-.08-3.36-1.09-2.18-2.18-1.45-5.13.64-7.2 2.02-2.03 4.93-2.67 7.04-.56zm-5.09 2.62c-1.16 1.16-1.81 2.89-.58 4.12 1.15 1.15 2.62.84 4.1-.64 1.33-1.33 1.8-2.83.58-4.06-1.15-1.15-2.68-.84-4.1.58zm-2.16-9.87c2.3 2.3 1.75 5.38-.41 7.55l-.39.35-5.28-5.28c-1.2 1.31-1.22 2.49-.07 3.64.76.76 1.88 1 2.55.65l1.77 1.77c-2.2 1.12-4.14.8-5.9-.96-2.32-2.33-2.13-5.34.12-7.6 2.2-2.2 5.4-2.33 7.6-.12zm-4.8 1.34l3.27 3.27c.9-1.3.87-2.23-.06-3.17-.98-.98-2.17-.98-3.22-.1zm-5.08-16.4l5.46 5.45c1.78 1.79 1.72 4.2.17 5.75-1.28 1.28-2.65 1.58-4.14.94l-.03.03c1.02 1.81-.5 3.41-1.4 4.4-.92 1-1.36 1.64-1.46 2.25l-2.22-2.22c.25-.6.8-1.26 1.47-2.04 1.3-1.53 1.85-2.54.45-3.94l-2.24-2.24-3.95 3.96-2.22-2.23 10.1-10.11zm.5 3.95l-2.85 2.85 2.45 2.45c.94.93 1.9 1.13 2.96.07 1-1 .85-1.96-.13-2.93l-2.43-2.44zM51.27 75.8a8.5 8.5 0 010 12.03 8.5 8.5 0 01-12.03 0A8.5 8.5 0 0151.27 75.8zm-10.03 2a5.68 5.68 0 008.03 8.03 5.68 5.68 0 000-8.03 5.68 5.68 0 00-8.03 0zm1.95 1.95a2.92 2.92 0 114.13 4.13 2.92 2.92 0 01-4.13-4.13z"/>
      <g transform="translate(63.74 52.81)">
        <mask id="b" fill="#fff">
          <path d="M20.13 10.4L10.48.75a2.25 2.25 0 00-3.18 0L.8 7.25a2.25 2.25 0 000 3.19l9.64 9.64a2.25 2.25 0 003.18 0l6.5-6.5a2.25 2.25 0 000-3.18"/>
        </mask>
        <path fill="#F2D978" d="M20.13 10.4L10.48.75a2.25 2.25 0 00-3.18 0L.8 7.25a2.25 2.25 0 000 3.19l9.64 9.64a2.25 2.25 0 003.18 0l6.5-6.5a2.25 2.25 0 000-3.18"/>
        <path fill="#000" fill-rule="nonzero" d="M7.72-2.18l6.77 6.77.1-.1 1.79 1.8-.1.1 6.77 6.77-.35.35-6.77-6.77-.14.15.05.2.03.1a4.9 4.9 0 01-.62 3.8 5.29 5.29 0 01-.39.53l3.66 3.66-.36.36-3.65-3.65-.02.02a1.8 1.8 0 01-.4.22 2.7 2.7 0 00-1 .68c-.4.4-.53.6-.74 1.05l-.07.13a2.31 2.31 0 01-.31.48l3.63 3.63-.36.36-3.63-3.63a4.8 4.8 0 01-4.67.9l-.2.2 6.77 6.77-.35.36L-2.18 7.72l.36-.36 6.77 6.77.2-.2a4.81 4.81 0 01.9-4.66L2.42 5.64l.35-.36 3.64 3.63a2.31 2.31 0 01.48-.32l.13-.06c.46-.21.65-.34 1.05-.74.36-.36.46-.52.68-1.01.08-.18.15-.3.24-.42L5.34 2.71l.35-.35 3.66 3.66.01-.01a5.07 5.07 0 01.66-.47 4.81 4.81 0 013.88-.48l.09.03.14-.14-6.77-6.77.36-.36zm6.77 7.48l-.38.37-.15-.06a3.03 3.03 0 00-.4-.12 4.33 4.33 0 00-4.07 1.07 1.05 1.05 0 00-.1.1 1.33 1.33 0 00-.18.32 3 3 0 01-.79 1.16c-.44.45-.68.6-1.19.84l-.12.06a1.86 1.86 0 00-.52.38c-1.45 1.46-1.6 4.06-.4 5.26 1.21 1.21 3.81 1.06 5.27-.4.18-.17.28-.32.38-.52l.05-.11c.24-.51.4-.75.84-1.2.42-.4.62-.53 1.16-.77a1.23 1.23 0 00.43-.3 4.88 4.88 0 00.5-.66 4.4 4.4 0 00.56-3.41 3.42 3.42 0 00-.1-.35l-.01-.04-.06-.16.37-.37-1.1-1.09zm.22.87a.42.42 0 11-.6.6.42.42 0 01.6-.6z" mask="url(#b)"/>
      </g>
    </g>
    <path fill="#BBB" d="M107.92 119.33c11.85 6.96 27.13 9.47 66.4-5.86l-.06-.07-57.33-57.33a159.12 159.12 0 00-13.71 12.39c-20.17 20.5-7.76 43.55 4.7 50.87" mask="url(#a)" style="mix-blend-mode:multiply"/>
    <g mask="url(#a)">
      <g transform="translate(95.22 3.42)">
        <mask id="c" fill="#fff">
          <path d="M235.2 9.13c-16.98-4-34.98-7.25-51.96-8.43-58.39-4.06-128.49 12.17-172.57 57-20.17 20.51-7.76 43.55 4.7 50.87 12.45 7.32 28.71 9.73 72.67-8.37 37.68-15.51 77.4-24.05 116.04-21.83 29.1 1.68 46.14-10.56 50.91-28.36 4.15-15.47-.55-36.34-19.79-40.88"/>
        </mask>
        <path fill="#FFF" d="M235.2 9.13c-16.98-4-34.98-7.25-51.96-8.43-58.39-4.06-128.49 12.17-172.57 57-20.17 20.51-7.76 43.55 4.7 50.87 12.45 7.32 28.71 9.73 72.67-8.37 37.68-15.51 77.4-24.05 116.04-21.83 29.1 1.68 46.14-10.56 50.91-28.36 4.15-15.47-.55-36.34-19.79-40.88"/>
        <path fill="#BABABA" d="M5.34 98.63C29.06 81.32 48.63 77.15 34.1 86.47c-9.8 6.3-18.86 13.4-24.2 17.78a34 34 0 01-4.55-5.62M.21 78.3c20.84-15.46 36.82-19.23 23.66-9.93A268.7 268.7 0 00.6 87.08a29.42 29.42 0 01-.4-8.8" mask="url(#c)"/>
      </g>
    </g>
  </g>
</svg>