<svg xmlns="http://www.w3.org/2000/svg" width="360" height="360" viewBox="0 0 360 360">
  <g fill="none" fill-rule="evenodd" transform="translate(30 50)">
    <mask id="a" fill="#fff">
      <path d="M150 0c82.84 0 150 67.16 150 150s-67.16 150-150 150S0 232.84 0 150 67.16 0 150 0"/>
    </mask>
    <path fill="#C00" d="M150 0c82.84 0 150 67.16 150 150s-67.16 150-150 150S0 232.84 0 150 67.16 0 150 0"/>
    <path fill="#720000" d="M150 200c138.07 0 250 111.93 250 250S288.07 700 150 700s-250-111.93-250-250S11.93 200 150 200" mask="url(#a)"/>
    <path fill="#560000" d="M235 243c0 3.87-34.92 7-78 7s-78-3.13-78-7 34.92-7 78-7 78 3.13 78 7" mask="url(#a)"/>
    <g mask="url(#a)">
      <path fill="red" d="M215.56 89.77L59 79l7 64.15c1.12 10.23 2.23 13.18 11.37 14.66l59.18 9.15c30.7 5.13 42.78-1.39 42.78-1.39l-6.93 19.38 22.52 2.05 8.22-23.27 20.76-58.86c2.47-7.03 6.63-10.35 15.02-9.59l3.77.34.31-3.35-27.43-2.5z"/>
      <path fill="#BBB" d="M73.52 185.2l79.87 11.39c13.05 1.09 17.2-6.8 18.88-11.59l22.48 2.07-4.5 12.9a18.85 18.85 0 003.3 18.28l7.45 8.94-8.15 6.81-11.36-13.71a16.03 16.03 0 00-10.88-5.74L59.88 197.57a2.1 2.1 0 01-1.86-2.4c1.3-8.64 5.34-10.91 15.5-9.97"/>
      <path fill="#000" d="M189.04 233.54a10.5 10.5 0 1120.91 1.92 10.5 10.5 0 01-20.9-1.92zm-122-17a10.5 10.5 0 1120.91 1.92 10.5 10.5 0 01-20.9-1.92z"/>
      <path fill="#BBB" d="M195.02 233.63a4 4 0 117.96.73 4 4 0 01-7.96-.73zm-122-17a4 4 0 117.96.73 4 4 0 01-7.96-.73z"/>
      <path fill="#A00" d="M185 143.02a5.5 5.5 0 11-1 10.96 5.5 5.5 0 011-10.96zm-23-2a5.5 5.5 0 11-1 10.96 5.5 5.5 0 011-10.96zm-22-2a5.5 5.5 0 11-1 10.96 5.5 5.5 0 01-4.98-5.98 5.5 5.5 0 015.98-4.98zm-22-2a5.5 5.5 0 11-1 10.96 5.5 5.5 0 111-10.96zm-23-2a5.5 5.5 0 11-1 10.96 5.5 5.5 0 011-10.96zm55-14a5.5 5.5 0 11-1 10.96 5.5 5.5 0 011-10.96zm-22-2a5.5 5.5 0 11-1 10.96 5.5 5.5 0 011-10.96zm-23-2a5.5 5.5 0 11-1 10.96 5.5 5.5 0 011-10.96zm-22-2a5.5 5.5 0 11-1 10.96 5.5 5.5 0 111-10.96zm79-11a5.5 5.5 0 014.98 5.98 5.5 5.5 0 11-4.98-5.98zm-23-2a5.5 5.5 0 11-1 10.96 5.5 5.5 0 011-10.96zm-22-2a5.5 5.5 0 11-1 10.96 5.5 5.5 0 011-10.96zM89.02 103a5.5 5.5 0 1110.96 1 5.5 5.5 0 01-10.96-1z"/>
      <path fill="#FFF" d="M184.02 117.02c.28-3 3.01-5.27 5.99-5a5.5 5.5 0 014.97 6 5.48 5.48 0 01-5.98 4.96 5.53 5.53 0 01-4.98-5.96m-5.98-.48a10.46 10.46 0 009.46 11.41c5.84.54 10.92-3.7 11.45-9.49.54-5.8-3.7-10.88-9.53-11.42a10.47 10.47 0 00-11.38 9.5m9.45 17.4a15.97 15.97 0 01-14.42-17.4 15.97 15.97 0 0117.35-14.47 15.99 15.99 0 0114.51 17.4 15.98 15.98 0 01-17.44 14.46"/>
      <path fill="#BBB" d="M58.67 78.95l195.62 18.01c8.12.75 15.25-10.18 7.13-10.92L60.5 70a2.31 2.31 0 00-2.49 2.53l.66 6.4z"/>
    </g>
  </g>
</svg>
